<svg width="30" height="30" viewBox="0 0 30 30" fill="none"
    xmlns="http://www.w3.org/2000/svg">
    <path d="M18.5782 5H21.7949C23.127 5 24.2065 6.08856 24.2065 7.43196V10.6758C24.2065 12.0192 23.127 13.1078 21.7949 13.1078H18.5782C17.2461 13.1078 16.1666 12.0192 16.1666 10.6758V7.43196C16.1666 6.08856 17.2461 5 18.5782 5" fill="#454B5B"/>
    <path fill-rule="evenodd" clip-rule="evenodd" d="M7.61814 5H10.8348C12.167 5 13.2464 6.08856 13.2464 7.43196V10.6758C13.2464 12.0192 12.167 13.1078 10.8348 13.1078H7.61814C6.28599 13.1078 5.20654 12.0192 5.20654 10.6758V7.43196C5.20654 6.08856 6.28599 5 7.61814 5ZM7.61814 15.8922H10.8348C12.167 15.8922 13.2464 16.9808 13.2464 18.3242V21.568C13.2464 22.9105 12.167 24 10.8348 24H7.61814C6.28599 24 5.20654 22.9105 5.20654 21.568V18.3242C5.20654 16.9808 6.28599 15.8922 7.61814 15.8922ZM21.7949 15.8922H18.5783C17.2461 15.8922 16.1667 16.9808 16.1667 18.3242V21.568C16.1667 22.9105 17.2461 24 18.5783 24H21.7949C23.1271 24 24.2065 22.9105 24.2065 21.568V18.3242C24.2065 16.9808 23.1271 15.8922 21.7949 15.8922Z" fill="#8A92A6"/>
</svg>
