<svg width="18" height="18" viewBox="0 0 18 18" fill="none"
    xmlns="http://www.w3.org/2000/svg">
    <g clip-path="url(#clip0_33_688)">
        <path d="M15.3481 3.86919C15.2414 3.64603 14.9397 3.58195 14.7541 3.76752L13.6607 4.86085C13.3994 4.80604 13.1932 4.59989 13.1388 4.33851L14.2321 3.24519C14.4115 3.06576 14.3601 2.76075 14.1301 2.65112C13.1442 2.18074 11.9626 2.38332 11.189 3.15618C10.5726 3.77294 10.3128 4.65176 10.4847 5.49528L6.04384 9.87304C5.85781 9.83937 5.66985 9.82613 5.48141 9.83366C4.10184 9.88854 2.97797 11.0305 3.00108 12.4535C3.02365 13.8416 4.14778 15 5.57842 15C7.03729 15 8.17902 13.8109 8.16799 12.3939C8.16686 12.2495 8.15379 12.1063 8.12874 11.9648L12.6194 7.53697C13.4344 7.66565 14.253 7.40108 14.8431 6.81028C15.6163 6.03742 15.8193 4.85546 15.3481 3.86919ZM5.58421 13.5228C4.97357 13.5228 4.47683 13.0261 4.47683 12.4155C4.47683 11.8048 4.97355 11.3081 5.58421 11.3081C6.19484 11.3081 6.69158 11.8048 6.69158 12.4155C6.69158 13.0261 6.19484 13.5228 5.58421 13.5228Z" fill="#D0D3DB"/>
        <path d="M8.10525 5.55425C8.30171 4.69093 8.04614 3.78939 7.41208 3.15533C6.4042 2.14853 4.76516 2.14782 3.758 3.15533C2.74806 4.16527 2.74759 5.79978 3.758 6.8094C4.35712 7.40815 5.21682 7.67309 6.0405 7.526L6.7415 8.14963L8.76946 6.12204L8.10525 5.55425ZM6.36778 5.76584C5.93505 6.19786 5.23289 6.19611 4.80188 5.76584V5.76547C4.37006 5.33365 4.37006 4.63145 4.80191 4.1996C5.22004 3.78109 5.94998 3.78146 6.36815 4.1996C6.79989 4.63135 6.80135 5.3323 6.36778 5.76584Z" fill="#757B8C"/>
        <path d="M14.8425 10.5897C14.2433 9.99056 13.3843 9.72564 12.556 9.87379L11.9508 9.20544L9.87402 11.2822L10.4718 11.9613C10.3247 12.7874 10.5897 13.645 11.1884 14.2437C12.1972 15.2525 13.8365 15.2497 14.8425 14.2437C15.85 13.2362 15.85 11.5972 14.8425 10.5897ZM13.7982 13.1998C13.3663 13.6317 12.6641 13.6317 12.2323 13.1998H12.2319C11.8008 12.768 11.8008 12.0654 12.2319 11.6336C12.6645 11.2017 13.3663 11.2017 13.7981 11.6336C14.23 12.0654 14.23 12.768 13.7982 13.1998Z" fill="#757B8C"/>
    </g>
    <defs>
        <clipPath id="clip0_33_688">
            <rect width="12.6" height="12.6" fill="white" transform="translate(3 2.39996)"/>
        </clipPath>
    </defs>
</svg>
