<svg width="18" height="18" viewBox="0 0 18 18" fill="none" xmlns="http://www.w3.org/2000/svg">
<path fill-rule="evenodd" clip-rule="evenodd" d="M14.538 10.5721C14.4215 10.3921 14.2559 10.2121 14.0413 10.0981C13.8696 10.0141 13.7593 9.87609 13.6612 9.71409C13.3484 9.19809 13.5324 8.52009 14.0536 8.21409C14.6668 7.87209 14.863 7.11009 14.5073 6.51609L14.0965 5.80809C13.747 5.21409 12.9805 5.00409 12.3735 5.35209C11.8339 5.64009 11.141 5.44809 10.8283 4.93809C10.7302 4.77009 10.675 4.59009 10.6873 4.41009C10.7057 4.17609 10.6321 3.95409 10.5217 3.77409C10.2948 3.40209 9.88401 3.15009 9.43026 3.15009H8.56569C8.11807 3.16209 7.70724 3.40209 7.48037 3.77409C7.36386 3.95409 7.29642 4.17609 7.30868 4.41009C7.32094 4.59009 7.26576 4.77009 7.16765 4.93809C6.85493 5.44809 6.16204 5.64009 5.62858 5.35209C5.01541 5.00409 4.25507 5.21409 3.89943 5.80809L3.4886 6.51609C3.13909 7.11009 3.33531 7.87209 3.94235 8.21409C4.46355 8.52009 4.6475 9.19809 4.34091 9.71409C4.23667 9.87609 4.1263 10.0141 3.95461 10.0981C3.74614 10.2121 3.56218 10.3921 3.46408 10.5721C3.2372 10.9441 3.24946 11.4121 3.47634 11.8021L3.89943 12.5221C4.1263 12.9061 4.54939 13.1461 4.99088 13.1461C5.19936 13.1461 5.44463 13.0861 5.64084 12.9661C5.79414 12.8641 5.97809 12.8281 6.18044 12.8281C6.78748 12.8281 7.29642 13.3261 7.30868 13.9201C7.30868 14.6101 7.8728 15.1501 8.58408 15.1501H9.418C10.1231 15.1501 10.6873 14.6101 10.6873 13.9201C10.7057 13.3261 11.2146 12.8281 11.8216 12.8281C12.0179 12.8281 12.2018 12.8641 12.3612 12.9661C12.5575 13.0861 12.7966 13.1461 13.0112 13.1461C13.4466 13.1461 13.8696 12.9061 14.0965 12.5221L14.5257 11.8021C14.7465 11.4001 14.7649 10.9441 14.538 10.5721ZM6.48575 9.15608C6.48575 10.5518 7.63704 11.6281 9.00716 11.6281C10.3882 11.6281 11.5102 10.5412 11.5102 9.15608C11.5102 7.77458 10.3919 6.67808 9.00716 6.67808C7.63339 6.67808 6.48575 7.76387 6.48575 9.15608Z" fill="#D0D3DB"/>
<path d="M9.00728 10.8481C8.0446 10.8481 7.26587 10.0981 7.26587 9.15607C7.26587 8.21407 8.0446 7.45807 9.00728 7.45807C9.96997 7.45807 10.7303 8.21407 10.7303 9.15607C10.7303 10.0981 9.96997 10.8481 9.00728 10.8481Z" fill="#757B8C"/>
<path fill-rule="evenodd" clip-rule="evenodd" d="M9.00726 11.6281C7.63713 11.6281 6.48584 10.5518 6.48584 9.15607C6.48584 7.76386 7.63348 6.67807 9.00726 6.67807C10.392 6.67807 11.5103 7.77457 11.5103 9.15607C11.5103 10.5411 10.3883 11.6281 9.00726 11.6281ZM7.26584 9.15607C7.26584 10.0981 8.04457 10.8481 9.00726 10.8481C9.96994 10.8481 10.7303 10.0981 10.7303 9.15607C10.7303 8.21407 9.96994 7.45807 9.00726 7.45807C8.04457 7.45807 7.26584 8.21407 7.26584 9.15607Z" fill="white"/>
</svg>
