<svg width="30" height="30" viewBox="0 0 30 30" fill="none"
    xmlns="http://www.w3.org/2000/svg">
    <path d="M22.6228 14.2869C21.8923 13.4338 21.5603 12.6946 21.5603 11.4387V11.0117C21.5603 9.37508 21.1837 8.32061 20.3647 7.26614C19.1025 5.62853 16.9776 4.64154 14.8975 4.64154H14.809C12.7726 4.64154 10.7143 5.58321 9.43027 7.15434C8.5666 8.22996 8.1462 9.32976 8.1462 11.0117V11.4387C8.1462 12.6946 7.83611 13.4338 7.08376 14.2869C6.53018 14.9153 6.35327 15.7231 6.35327 16.5972C6.35327 17.4724 6.6405 18.3013 7.21694 18.9751C7.96929 19.7828 9.03173 20.2985 10.117 20.3881C11.6883 20.5674 13.2596 20.6348 14.8538 20.6348C16.4469 20.6348 18.0182 20.5221 19.5905 20.3881C20.6748 20.2985 21.7373 19.7828 22.4896 18.9751C23.0651 18.3013 23.3533 17.4724 23.3533 16.5972C23.3533 15.7231 23.1764 14.9153 22.6228 14.2869Z" fill="#D0D3DB"/>
    <path d="M16.8619 21.8699C16.362 21.7632 13.3158 21.7632 12.8159 21.8699C12.3885 21.9686 11.9264 22.1982 11.9264 22.7018C11.9512 23.1822 12.2325 23.6062 12.6221 23.8751L12.6211 23.8761C13.125 24.2689 13.7163 24.5187 14.3355 24.6083C14.6655 24.6536 15.0014 24.6516 15.3433 24.6083C15.9615 24.5187 16.5528 24.2689 17.0567 23.8761L17.0557 23.8751C17.4453 23.6062 17.7266 23.1822 17.7514 22.7018C17.7514 22.1982 17.2893 21.9686 16.8619 21.8699Z" fill="#757B8C"/>
</svg>
