<svg width="30" height="30" viewBox="0 0 30 30" fill="none"
    xmlns="http://www.w3.org/2000/svg">
    <path fill-rule="evenodd" clip-rule="evenodd" d="M22.7165 10.8611C22.4237 10.5683 21.9488 10.5683 21.6559 10.8611C21.363 11.154 21.363 11.6289 21.6559 11.9218L23.5575 13.8235H13.5254C13.1112 13.8235 12.7754 14.1592 12.7754 14.5735C12.7754 14.9877 13.1112 15.3235 13.5254 15.3235H23.5575L21.6559 17.2251C21.363 17.518 21.363 17.9929 21.6559 18.2858C21.9488 18.5787 22.4237 18.5787 22.7165 18.2858L25.8985 15.1038C26.1914 14.8109 26.1914 14.336 25.8985 14.0431L22.7165 10.8611Z" fill="#467CEC"/>
    <path fill-rule="evenodd" clip-rule="evenodd" d="M10.2647 5.61401H15.287C18.1701 5.61401 19.7754 7.21601 19.7754 9.96101V12.84H13.5109C12.5524 12.84 11.7754 13.617 11.7754 14.5755C11.7754 15.534 12.5524 16.311 13.5109 16.311H19.7754V19.258C19.7754 22.048 18.1701 23.614 15.287 23.614H10.2647C7.42739 23.614 5.77539 22.048 5.77539 19.258V9.96101C5.77539 7.21601 7.42739 5.61401 10.2647 5.61401ZM19.7754 16.311H19.7835V12.84H19.7754V16.311Z" fill="white"/>
</svg>
