<svg width="30" height="30" viewBox="0 0 30 30" fill="none"
    xmlns="http://www.w3.org/2000/svg">
    <g clip-path="url(#clip0_33_634)">
        <path d="M20.125 14.4811C20.125 15.5857 19.2296 16.4811 18.125 16.4811H10.125V19.4811C10.125 20.5857 11.0204 21.4811 12.125 21.4811H22.125C23.2296 21.4811 24.125 20.5857 24.125 19.4811V11.4811C24.125 10.3766 23.2296 9.48114 22.125 9.48114H20.125V14.4811Z" fill="white"/>
        <path d="M6.875 17.4811H18.2322C19.2776 17.4811 20.1251 16.5857 20.1251 15.4811V7.48114C20.1251 6.37657 19.2776 5.48114 18.2322 5.48114H6.875V17.4811Z" fill="#467CEC"/>
        <path fill-rule="evenodd" clip-rule="evenodd" d="M6.125 3.73114C6.53921 3.73114 6.875 4.06693 6.875 4.48114V24.4811C6.875 24.8954 6.53921 25.2311 6.125 25.2311C5.71079 25.2311 5.375 24.8954 5.375 24.4811V4.48114C5.375 4.06693 5.71079 3.73114 6.125 3.73114Z" fill="white"/>
    </g>
    <defs>
        <clipPath id="clip0_33_634">
            <rect width="30" height="30" fill="white"/>
        </clipPath>
    </defs>
</svg>
